<svg width="120" height="38" viewBox="0 0 120 38" fill="none" xmlns="http://www.w3.org/2000/svg">
<path d="M20.8929 1.80524L19.0068 2.54732V4.38475L20.8929 5.12684V1.80524Z" fill="white"/>
<path d="M24.6661 3.2865L22.78 4.02859V5.86602L24.6661 6.60556V3.2865Z" fill="white"/>
<path d="M12.7293 37.4734H9.56727V10.9387L7.69385 10.2525V4.02863L9.57992 3.28655V6.60561L11.466 5.86606V2.547L12.4078 2.17342L13.3495 1.80491V5.12652L15.2382 4.38443V1.06283L17.1242 0.32074V6.54461L26.5521 9.88909L24.5698 11.1725L17.1242 8.75054V37.4734H13.9622" fill="white"/>
<path d="M0 17.9882L6.24557 14.5269V37.4731H0V17.9882Z" fill="white"/>
<path d="M24.6221 14.3943L32.5613 10.0384V37.4728H24.6221V14.3943Z" fill="white"/>
<path d="M35.6433 20.7276L40.7142 23.7722V37.4729H35.6433V20.7276Z" fill="white"/>
<path d="M75.3799 17.2839H65.0635V19.3552H68.4255V37.2491H71.2002V19.3552H74.9242L75.3799 17.2839Z" fill="white"/>
<path d="M93.9394 17.9651C93.0871 17.5195 91.9233 17.2967 90.4482 17.2967H83.0786L86.1166 19.3679V37.2619H90.6609C92.0516 37.2619 93.1605 37.0078 93.9875 36.4995C94.8189 35.9918 95.4516 35.2131 95.7799 34.2935C96.1765 33.1455 96.3635 31.935 96.3318 30.7203V23.3732C96.3651 22.2231 96.1778 21.0773 95.7799 19.9982C95.4331 19.1184 94.7787 18.3956 93.9394 17.9651ZM93.5343 30.2019C93.5418 31.1161 93.497 32.0299 93.4001 32.939C93.3621 33.5864 93.0924 34.1983 92.6406 34.662C92.2128 35.0585 91.4938 35.2542 90.4786 35.2542H88.9014V19.3578H90.3951C91.3453 19.3578 92.0406 19.5052 92.4812 19.8C92.7112 19.9643 92.906 20.1733 93.0539 20.4148C93.2018 20.6562 93.2997 20.9251 93.3419 21.2054C93.4871 22.0349 93.5524 22.8766 93.5369 23.7188L93.5343 30.2019Z" fill="white"/>
<path d="M119.354 20.0469C119.037 19.1563 118.437 18.3948 117.648 17.8791C116.859 17.3708 115.795 17.1167 114.455 17.1167C113.115 17.1167 112.047 17.3708 111.25 17.8791C110.45 18.387 109.845 19.1508 109.531 20.0469C109.156 21.1366 108.978 22.2846 109.005 23.4371V31.0029C108.979 32.1695 109.151 33.332 109.511 34.4414C109.814 35.3666 110.42 36.1619 111.23 36.6981C112.033 37.2234 113.106 37.486 114.448 37.486C115.789 37.486 116.853 37.2191 117.64 36.6854C118.436 36.1375 119.035 35.3459 119.346 34.4287C119.721 33.3328 119.902 32.1793 119.88 31.0207V23.4244C119.908 22.276 119.729 21.1321 119.354 20.0469ZM117.075 31.6077C117.085 32.2579 117.019 32.907 116.878 33.5417C116.775 34.0393 116.507 34.4873 116.118 34.8124C115.744 35.1174 115.188 35.2699 114.45 35.2699C113.713 35.2699 113.151 35.1174 112.767 34.8124C112.371 34.4908 112.098 34.0419 111.994 33.5417C111.854 32.907 111.787 32.2579 111.797 31.6077V22.8577C111.786 22.215 111.853 21.5734 111.994 20.9466C112.097 20.4565 112.371 20.0194 112.767 19.714C113.151 19.4277 113.713 19.2845 114.45 19.2845C115.188 19.2845 115.744 19.4277 116.118 19.714C116.508 20.0229 116.776 20.4591 116.878 20.9466C117.02 21.5734 117.086 22.215 117.075 22.8577V31.6077Z" fill="white"/>
<path d="M56.1692 17.8048C55.4401 17.3439 54.4544 17.1135 53.2123 17.1135C51.8013 17.1135 50.7085 17.3888 49.9338 17.9395C49.1443 18.5065 48.5724 19.3282 48.3135 20.2674C47.9906 21.4136 47.837 22.6013 47.8578 23.7923V30.8421C47.844 31.976 47.9976 33.1056 48.3135 34.1942C48.5818 35.1463 49.1503 35.9854 49.9338 36.5857C50.7101 37.1787 51.803 37.4743 53.2123 37.4726C54.5203 37.4726 55.5329 37.2143 56.2502 36.6975C56.9812 36.1621 57.5153 35.399 57.7692 34.5272C58.0793 33.4837 58.2279 32.3985 58.2097 31.3098V30.9031L55.5819 29.8332V31.3098C55.5878 32.0021 55.5472 32.6941 55.4604 33.381C55.4113 33.8999 55.1953 34.3888 54.8452 34.7737C54.5177 35.1125 53.9776 35.282 53.2249 35.282C52.6935 35.308 52.166 35.1791 51.7059 34.9109C51.2923 34.6113 51.0037 34.1686 50.8958 33.6682C50.7074 32.8899 50.6223 32.0901 50.6426 31.2894V23.373C50.635 22.6514 50.6883 21.9304 50.8021 21.2179C50.8708 20.6764 51.1166 20.1732 51.5009 19.7871C51.8603 19.4516 52.435 19.2788 53.2198 19.2788C54.0047 19.2788 54.5388 19.4338 54.8654 19.7464C55.2133 20.1021 55.4265 20.5686 55.4679 21.0654C55.5457 21.7155 55.5821 22.37 55.5768 23.0248V23.3577L58.2047 24.4302V22.852C58.2316 21.8063 58.0731 20.7642 57.7363 19.7744C57.4491 18.9598 56.8971 18.266 56.1692 17.8048Z" fill="white"/>
<path d="M101.478 17.3094L97.2556 37.2747H99.8581L100.815 32.2478H103.645L103.359 30.2502H101.185L102.83 21.2537L104.499 30.2502L104.868 32.2478L105.775 37.2747H108.402L104.154 17.3094H101.478Z" fill="white"/>
<path d="M60.2988 20.7302L63.0254 19.8407V17.3094H60.2988V20.7302Z" fill="white"/>
<path d="M60.2988 37.2756H63.0254V21.3233L60.2988 22.1721V37.2756Z" fill="white"/>
<path d="M77.4943 17.3094L73.2715 37.2747H75.874L76.831 32.2478H79.6614L79.3753 30.2502H77.2006L78.8462 21.2537L80.8841 32.2478L81.7905 37.2747H84.4183L80.1702 17.3094H77.4943Z" fill="white"/>
</svg>
